<?xml version="1.0" encoding="UTF-8"?><svg id="a" xmlns="http://www.w3.org/2000/svg" viewBox="0 0 88 88"><defs><style>.b{fill:#ecf9e5;}</style></defs><path class="b" d="M83.74,18.13l-9.64-4.37c-.18-.08-.39-.07-.56,.02l-37.82,20.86c-6.41-3.68-14.37-3.75-20.85-.18C4.61,40.12,.87,53.06,6.53,63.31c5.65,10.25,18.59,14,28.85,8.34,6.49-3.58,10.67-10.35,10.96-17.73l9.08-5.01c.18-.1,.29-.29,.31-.5l2.1-7.26,4.42,1.28c.16,.05,.33,.03,.48-.05,.15-.08,.26-.22,.3-.38l3.05-10.57,6.45,1.86c.33,.1,.68-.1,.78-.43l1.9-6.57,5.6,1.62c.33,.1,.68-.1,.78-.43l2.49-8.6c.09-.3-.06-.62-.35-.75h0ZM15.36,49.56c3.75-2.07,8.49-.7,10.56,3.05,2.07,3.75,.7,8.49-3.05,10.56-3.75,2.07-8.49,.7-10.56-3.05-2.07-3.75-.7-8.49,3.05-10.56h0Z"/></svg>