<svg width="117" height="96" viewBox="0 0 117 96" fill="none" xmlns="http://www.w3.org/2000/svg">
<path d="M103.088 20.359L91.7765 15.2349C91.5642 15.1386 91.3192 15.1476 91.1149 15.2602L46.7382 39.7316C39.2166 35.4169 29.8834 35.3277 22.2769 39.5221C10.247 46.1556 5.85696 61.3381 12.4906 73.3682C19.1246 85.399 34.308 89.7907 46.3381 83.1571C53.9518 78.9588 58.852 71.0153 59.2021 62.3539L69.8579 56.4781C70.074 56.3589 70.1989 56.1344 70.2221 55.8965L72.6861 47.3748L77.8765 48.8771C78.0658 48.9318 78.2672 48.908 78.439 48.8133C78.6117 48.7181 78.7383 48.5587 78.7932 48.3716L82.3762 35.9743L89.9489 38.1624C90.3417 38.2759 90.7521 38.0496 90.8656 37.6569L93.0946 29.9427L99.6597 31.8386C100.052 31.9521 100.463 31.7258 100.576 31.3331L103.495 21.2377C103.596 20.8853 103.424 20.5119 103.088 20.3592L103.088 20.359ZM22.8571 57.2328C27.2605 54.8047 32.8193 56.4125 35.2476 60.8162C37.6753 65.2188 36.0695 70.7776 31.6652 73.2063C27.2626 75.6339 21.7029 74.0266 19.2751 69.6238C16.8487 65.2193 18.4543 59.6606 22.8571 57.2328Z" fill="#ECF9E5"/>
</svg>
