<svg width="78" height="78" viewBox="0 0 78 78" fill="none" xmlns="http://www.w3.org/2000/svg">
<path d="M39 0C17.4605 0 0 17.4613 0 39C0 60.5387 17.4613 78 39 78C60.5387 78 78 60.5387 78 39C78 17.4613 60.5387 0 39 0ZM39 11.1429C41.0513 11.1429 42.7146 12.8054 42.7146 14.8574V17.1791C47.5818 18.2626 51.3164 21.3026 53.3351 24.6657C54.3378 26.3368 53.7292 28.7697 52.058 29.7731C50.3869 30.7758 47.9533 30.1672 46.9506 28.4961C45.7459 26.4884 42.8186 24.1434 39 24.1434C36.582 24.1434 34.6513 24.8375 33.4286 25.8262C32.2058 26.8148 31.5717 27.9722 31.5717 29.7148C31.5942 32.9707 37.0078 34.1678 40.3929 35.5187C42.8863 36.5034 45.7987 37.2535 48.5759 38.9425C51.3531 40.6323 53.8574 44.0577 53.8574 48.286C53.8574 52.1693 52.0518 55.6723 49.2723 57.9202C47.4038 59.4312 45.1644 60.4448 42.7146 60.9383V63.1434C42.7146 65.1947 41.052 66.8579 39 66.8579C36.9487 66.8579 35.2854 65.1946 35.2854 63.1434V60.8217C30.4182 59.7234 26.6828 56.6407 24.6649 53.2768C23.6622 51.6057 24.2701 49.172 25.942 48.1694C27.6131 47.1667 30.0459 47.7745 31.0494 49.4464C32.2541 51.4541 35.1814 53.8574 39 53.8574C41.418 53.8574 43.3487 53.105 44.5714 52.1163C45.7942 51.1276 46.4283 50.0286 46.4283 48.286C46.4058 44.9654 41.0179 43.7801 37.6071 42.4246C35.1137 41.4398 32.2013 40.6898 29.4241 39.0008C26.6469 37.311 24.1426 33.9431 24.1426 29.7148C24.1426 25.8315 25.9482 22.271 28.7277 20.0231C30.5947 18.5129 32.837 17.5399 35.2854 17.0633V14.8582C35.2854 12.8069 36.948 11.1437 39 11.1437V11.1429Z" fill="#ECF9E5"/>
</svg>
