<?xml version="1.0" encoding="UTF-8"?><svg id="a" xmlns="http://www.w3.org/2000/svg" xmlns:xlink="http://www.w3.org/1999/xlink" viewBox="0 0 88 88"><defs><style>.c{clip-path:url(#b);}.d{fill:#ecf9e5;}.e{fill:none;}</style><clipPath id="b"><rect class="e" x="9.22" y="9.22" width="69.56" height="69.56"/></clipPath></defs><g class="c"><path class="d" d="M44,9.22c-19.21,0-34.78,15.57-34.78,34.78s15.57,34.78,34.78,34.78,34.78-15.57,34.78-34.78S63.21,9.22,44,9.22Zm0,9.94c1.83,0,3.31,1.48,3.31,3.31v2.07c4.34,.97,7.67,3.68,9.47,6.68,.89,1.49,.35,3.66-1.14,4.55-1.49,.89-3.66,.35-4.55-1.14-1.07-1.79-3.68-3.88-7.09-3.88-2.16,0-3.88,.62-4.97,1.5-1.09,.88-1.66,1.91-1.66,3.47,.02,2.9,4.85,3.97,7.87,5.18,2.22,.88,4.82,1.55,7.3,3.05,2.48,1.51,4.71,4.56,4.71,8.33,0,3.46-1.61,6.59-4.09,8.59-1.67,1.35-3.66,2.25-5.85,2.69v1.97c0,1.83-1.48,3.31-3.31,3.31s-3.31-1.48-3.31-3.31v-2.07c-4.34-.98-7.67-3.73-9.47-6.73-.89-1.49-.35-3.66,1.14-4.55,1.49-.89,3.66-.35,4.55,1.14,1.07,1.79,3.68,3.93,7.09,3.93,2.16,0,3.88-.67,4.97-1.55,1.09-.88,1.66-1.86,1.66-3.42-.02-2.96-4.82-4.02-7.87-5.23-2.22-.88-4.82-1.55-7.3-3.05-2.48-1.51-4.71-4.51-4.71-8.28,0-3.46,1.61-6.64,4.09-8.64,1.66-1.35,3.66-2.21,5.85-2.64v-1.97c0-1.83,1.48-3.31,3.31-3.31h0Z"/></g></svg>